<mxfile host="app.diagrams.net" modified="2024-01-29T17:06:59.278Z" agent="Mozilla/5.0 (Windows NT 10.0; Win64; x64) AppleWebKit/537.36 (KHTML, like Gecko) Chrome/120.0.0.0 Safari/537.36 OPR/106.0.0.0" etag="WlhmEPjRq-9lHcn9f2bV" version="23.0.2" type="device">
  <diagram name="Pagina-1" id="lmpzOlCEvKxCuPHhXfXB">
    <mxGraphModel dx="581" dy="345" grid="1" gridSize="10" guides="1" tooltips="1" connect="1" arrows="1" fold="1" page="1" pageScale="1" pageWidth="827" pageHeight="1169" math="0" shadow="0">
      <root>
        <mxCell id="0" />
        <mxCell id="1" parent="0" />
        <mxCell id="IOvyg2IV7ht-75ERE2fK-1" value="PRODOTTO" style="rounded=0;whiteSpace=wrap;html=1;" vertex="1" parent="1">
          <mxGeometry x="447.5" y="280" width="120" height="60" as="geometry" />
        </mxCell>
        <mxCell id="IOvyg2IV7ht-75ERE2fK-2" value="CLIENTE" style="rounded=0;whiteSpace=wrap;html=1;" vertex="1" parent="1">
          <mxGeometry x="147.5" y="280" width="120" height="60" as="geometry" />
        </mxCell>
        <mxCell id="IOvyg2IV7ht-75ERE2fK-3" value="CARRELLO" style="rounded=0;whiteSpace=wrap;html=1;" vertex="1" parent="1">
          <mxGeometry x="447.5" y="490" width="120" height="60" as="geometry" />
        </mxCell>
        <mxCell id="IOvyg2IV7ht-75ERE2fK-4" value="CATEGORIA" style="rounded=0;whiteSpace=wrap;html=1;" vertex="1" parent="1">
          <mxGeometry x="447.5" y="70" width="120" height="60" as="geometry" />
        </mxCell>
        <mxCell id="IOvyg2IV7ht-75ERE2fK-5" value="acquista" style="rhombus;whiteSpace=wrap;html=1;" vertex="1" parent="1">
          <mxGeometry x="317.5" y="285" width="80" height="50" as="geometry" />
        </mxCell>
        <mxCell id="IOvyg2IV7ht-75ERE2fK-7" value="" style="endArrow=none;html=1;rounded=0;entryX=0;entryY=0.5;entryDx=0;entryDy=0;" edge="1" parent="1" target="IOvyg2IV7ht-75ERE2fK-1">
          <mxGeometry width="50" height="50" relative="1" as="geometry">
            <mxPoint x="397.5" y="310" as="sourcePoint" />
            <mxPoint x="447.5" y="260" as="targetPoint" />
          </mxGeometry>
        </mxCell>
        <mxCell id="IOvyg2IV7ht-75ERE2fK-8" value="" style="endArrow=none;dashed=1;html=1;rounded=0;" edge="1" parent="1" target="IOvyg2IV7ht-75ERE2fK-5">
          <mxGeometry width="50" height="50" relative="1" as="geometry">
            <mxPoint x="267.5" y="310" as="sourcePoint" />
            <mxPoint x="317.5" y="260" as="targetPoint" />
          </mxGeometry>
        </mxCell>
        <mxCell id="IOvyg2IV7ht-75ERE2fK-9" value="(0,N)" style="text;html=1;strokeColor=none;fillColor=none;align=center;verticalAlign=middle;whiteSpace=wrap;rounded=0;" vertex="1" parent="1">
          <mxGeometry x="397.5" y="280" width="60" height="30" as="geometry" />
        </mxCell>
        <mxCell id="IOvyg2IV7ht-75ERE2fK-10" value="(N,N)" style="text;html=1;strokeColor=none;fillColor=none;align=center;verticalAlign=middle;whiteSpace=wrap;rounded=0;" vertex="1" parent="1">
          <mxGeometry x="257.5" y="280" width="60" height="30" as="geometry" />
        </mxCell>
        <mxCell id="IOvyg2IV7ht-75ERE2fK-11" value="appartiene" style="rhombus;whiteSpace=wrap;html=1;" vertex="1" parent="1">
          <mxGeometry x="467.5" y="180" width="80" height="50" as="geometry" />
        </mxCell>
        <mxCell id="IOvyg2IV7ht-75ERE2fK-12" value="" style="endArrow=none;html=1;rounded=0;exitX=0.5;exitY=0;exitDx=0;exitDy=0;" edge="1" parent="1" source="IOvyg2IV7ht-75ERE2fK-1">
          <mxGeometry width="50" height="50" relative="1" as="geometry">
            <mxPoint x="457.5" y="280" as="sourcePoint" />
            <mxPoint x="507.5" y="230" as="targetPoint" />
          </mxGeometry>
        </mxCell>
        <mxCell id="IOvyg2IV7ht-75ERE2fK-13" value="" style="endArrow=none;html=1;rounded=0;exitX=0.5;exitY=0;exitDx=0;exitDy=0;entryX=0.5;entryY=1;entryDx=0;entryDy=0;" edge="1" parent="1" source="IOvyg2IV7ht-75ERE2fK-11" target="IOvyg2IV7ht-75ERE2fK-4">
          <mxGeometry width="50" height="50" relative="1" as="geometry">
            <mxPoint x="457.5" y="190" as="sourcePoint" />
            <mxPoint x="507.5" y="140" as="targetPoint" />
          </mxGeometry>
        </mxCell>
        <mxCell id="IOvyg2IV7ht-75ERE2fK-14" value="registra" style="rhombus;whiteSpace=wrap;html=1;" vertex="1" parent="1">
          <mxGeometry x="467.5" y="390" width="80" height="50" as="geometry" />
        </mxCell>
        <mxCell id="IOvyg2IV7ht-75ERE2fK-15" value="" style="endArrow=none;html=1;rounded=0;exitX=0.5;exitY=0;exitDx=0;exitDy=0;entryX=0.5;entryY=1;entryDx=0;entryDy=0;" edge="1" parent="1" source="IOvyg2IV7ht-75ERE2fK-14" target="IOvyg2IV7ht-75ERE2fK-1">
          <mxGeometry width="50" height="50" relative="1" as="geometry">
            <mxPoint x="347.5" y="340" as="sourcePoint" />
            <mxPoint x="397.5" y="290" as="targetPoint" />
          </mxGeometry>
        </mxCell>
        <mxCell id="IOvyg2IV7ht-75ERE2fK-16" value="" style="endArrow=none;html=1;rounded=0;exitX=0.5;exitY=1;exitDx=0;exitDy=0;entryX=0.5;entryY=0;entryDx=0;entryDy=0;" edge="1" parent="1" source="IOvyg2IV7ht-75ERE2fK-14" target="IOvyg2IV7ht-75ERE2fK-3">
          <mxGeometry width="50" height="50" relative="1" as="geometry">
            <mxPoint x="347.5" y="340" as="sourcePoint" />
            <mxPoint x="397.5" y="290" as="targetPoint" />
          </mxGeometry>
        </mxCell>
        <mxCell id="IOvyg2IV7ht-75ERE2fK-17" value="(1,1)" style="text;html=1;strokeColor=none;fillColor=none;align=center;verticalAlign=middle;whiteSpace=wrap;rounded=0;" vertex="1" parent="1">
          <mxGeometry x="497.5" y="460" width="60" height="30" as="geometry" />
        </mxCell>
        <mxCell id="IOvyg2IV7ht-75ERE2fK-18" value="(1,N)" style="text;html=1;strokeColor=none;fillColor=none;align=center;verticalAlign=middle;whiteSpace=wrap;rounded=0;" vertex="1" parent="1">
          <mxGeometry x="497.5" y="340" width="60" height="30" as="geometry" />
        </mxCell>
        <mxCell id="IOvyg2IV7ht-75ERE2fK-19" value="" style="endArrow=none;html=1;rounded=0;" edge="1" parent="1">
          <mxGeometry width="50" height="50" relative="1" as="geometry">
            <mxPoint x="152.4" y="280" as="sourcePoint" />
            <mxPoint x="152.4" y="270" as="targetPoint" />
          </mxGeometry>
        </mxCell>
        <mxCell id="IOvyg2IV7ht-75ERE2fK-20" value="" style="ellipse;whiteSpace=wrap;html=1;aspect=fixed;fillColor=#000000;" vertex="1" parent="1">
          <mxGeometry x="147.5" y="260" width="10" height="10" as="geometry" />
        </mxCell>
        <mxCell id="IOvyg2IV7ht-75ERE2fK-21" value="" style="endArrow=none;html=1;rounded=0;" edge="1" parent="1">
          <mxGeometry width="50" height="50" relative="1" as="geometry">
            <mxPoint x="182.4" y="280" as="sourcePoint" />
            <mxPoint x="182.5" y="260" as="targetPoint" />
          </mxGeometry>
        </mxCell>
        <mxCell id="IOvyg2IV7ht-75ERE2fK-22" value="" style="ellipse;whiteSpace=wrap;html=1;aspect=fixed;" vertex="1" parent="1">
          <mxGeometry x="177.5" y="250" width="10" height="10" as="geometry" />
        </mxCell>
        <mxCell id="IOvyg2IV7ht-75ERE2fK-23" value="" style="endArrow=none;html=1;rounded=0;" edge="1" parent="1">
          <mxGeometry width="50" height="50" relative="1" as="geometry">
            <mxPoint x="212.4" y="280" as="sourcePoint" />
            <mxPoint x="212.4" y="270" as="targetPoint" />
          </mxGeometry>
        </mxCell>
        <mxCell id="IOvyg2IV7ht-75ERE2fK-24" value="" style="ellipse;whiteSpace=wrap;html=1;aspect=fixed;" vertex="1" parent="1">
          <mxGeometry x="207.5" y="260" width="10" height="10" as="geometry" />
        </mxCell>
        <mxCell id="IOvyg2IV7ht-75ERE2fK-27" value="&lt;font style=&quot;font-size: 6px;&quot;&gt;id_cliente&lt;/font&gt;" style="text;html=1;strokeColor=none;fillColor=none;align=center;verticalAlign=middle;whiteSpace=wrap;rounded=0;" vertex="1" parent="1">
          <mxGeometry x="140" y="250" width="25" as="geometry" />
        </mxCell>
        <mxCell id="IOvyg2IV7ht-75ERE2fK-28" value="&lt;font style=&quot;font-size: 6px;&quot;&gt;email&lt;/font&gt;" style="text;html=1;strokeColor=none;fillColor=none;align=center;verticalAlign=middle;whiteSpace=wrap;rounded=0;" vertex="1" parent="1">
          <mxGeometry x="170" y="240" width="25" as="geometry" />
        </mxCell>
        <mxCell id="IOvyg2IV7ht-75ERE2fK-29" value="&lt;font style=&quot;font-size: 6px;&quot;&gt;password&lt;/font&gt;" style="text;html=1;strokeColor=none;fillColor=none;align=center;verticalAlign=middle;whiteSpace=wrap;rounded=0;" vertex="1" parent="1">
          <mxGeometry x="202.5" y="250" width="20" as="geometry" />
        </mxCell>
        <mxCell id="IOvyg2IV7ht-75ERE2fK-30" value="" style="endArrow=none;html=1;rounded=0;" edge="1" parent="1">
          <mxGeometry width="50" height="50" relative="1" as="geometry">
            <mxPoint x="459.9" y="70" as="sourcePoint" />
            <mxPoint x="459.9" y="60" as="targetPoint" />
          </mxGeometry>
        </mxCell>
        <mxCell id="IOvyg2IV7ht-75ERE2fK-31" value="" style="ellipse;whiteSpace=wrap;html=1;aspect=fixed;fillColor=#000000;" vertex="1" parent="1">
          <mxGeometry x="455" y="50" width="10" height="10" as="geometry" />
        </mxCell>
        <mxCell id="IOvyg2IV7ht-75ERE2fK-32" value="" style="endArrow=none;html=1;rounded=0;" edge="1" parent="1">
          <mxGeometry width="50" height="50" relative="1" as="geometry">
            <mxPoint x="489.9" y="70" as="sourcePoint" />
            <mxPoint x="490" y="50" as="targetPoint" />
          </mxGeometry>
        </mxCell>
        <mxCell id="IOvyg2IV7ht-75ERE2fK-33" value="" style="ellipse;whiteSpace=wrap;html=1;aspect=fixed;" vertex="1" parent="1">
          <mxGeometry x="485" y="40" width="10" height="10" as="geometry" />
        </mxCell>
        <mxCell id="IOvyg2IV7ht-75ERE2fK-36" value="&lt;font style=&quot;font-size: 6px;&quot;&gt;id_categoria&lt;/font&gt;" style="text;html=1;strokeColor=none;fillColor=none;align=center;verticalAlign=middle;whiteSpace=wrap;rounded=0;" vertex="1" parent="1">
          <mxGeometry x="447.5" y="40" width="25" as="geometry" />
        </mxCell>
        <mxCell id="IOvyg2IV7ht-75ERE2fK-37" value="&lt;font style=&quot;font-size: 6px;&quot;&gt;descrizione&lt;/font&gt;" style="text;html=1;strokeColor=none;fillColor=none;align=center;verticalAlign=middle;whiteSpace=wrap;rounded=0;" vertex="1" parent="1">
          <mxGeometry x="477.5" y="30" width="25" as="geometry" />
        </mxCell>
        <mxCell id="IOvyg2IV7ht-75ERE2fK-39" value="" style="endArrow=none;html=1;rounded=0;" edge="1" parent="1">
          <mxGeometry width="50" height="50" relative="1" as="geometry">
            <mxPoint x="567.5" y="290" as="sourcePoint" />
            <mxPoint x="577.5" y="290" as="targetPoint" />
          </mxGeometry>
        </mxCell>
        <mxCell id="IOvyg2IV7ht-75ERE2fK-41" value="" style="ellipse;whiteSpace=wrap;html=1;aspect=fixed;fillColor=#000000;" vertex="1" parent="1">
          <mxGeometry x="577.5" y="285" width="10" height="10" as="geometry" />
        </mxCell>
        <mxCell id="IOvyg2IV7ht-75ERE2fK-42" value="" style="endArrow=none;html=1;rounded=0;" edge="1" parent="1">
          <mxGeometry width="50" height="50" relative="1" as="geometry">
            <mxPoint x="567.5" y="310" as="sourcePoint" />
            <mxPoint x="577.5" y="310" as="targetPoint" />
          </mxGeometry>
        </mxCell>
        <mxCell id="IOvyg2IV7ht-75ERE2fK-43" value="" style="ellipse;whiteSpace=wrap;html=1;aspect=fixed;" vertex="1" parent="1">
          <mxGeometry x="577.5" y="305" width="10" height="10" as="geometry" />
        </mxCell>
        <mxCell id="IOvyg2IV7ht-75ERE2fK-44" value="&lt;font style=&quot;font-size: 6px;&quot;&gt;id_prodotto&lt;/font&gt;" style="text;html=1;strokeColor=none;fillColor=none;align=center;verticalAlign=middle;whiteSpace=wrap;rounded=0;" vertex="1" parent="1">
          <mxGeometry x="597.5" y="290" width="25" as="geometry" />
        </mxCell>
        <mxCell id="IOvyg2IV7ht-75ERE2fK-45" value="" style="endArrow=none;html=1;rounded=0;" edge="1" parent="1">
          <mxGeometry width="50" height="50" relative="1" as="geometry">
            <mxPoint x="567.5" y="330" as="sourcePoint" />
            <mxPoint x="577.5" y="330" as="targetPoint" />
          </mxGeometry>
        </mxCell>
        <mxCell id="IOvyg2IV7ht-75ERE2fK-46" value="" style="ellipse;whiteSpace=wrap;html=1;aspect=fixed;" vertex="1" parent="1">
          <mxGeometry x="577.5" y="325" width="10" height="10" as="geometry" />
        </mxCell>
        <mxCell id="IOvyg2IV7ht-75ERE2fK-47" value="&lt;font style=&quot;font-size: 6px;&quot;&gt;nome&lt;/font&gt;" style="text;html=1;strokeColor=none;fillColor=none;align=center;verticalAlign=middle;whiteSpace=wrap;rounded=0;" vertex="1" parent="1">
          <mxGeometry x="597.5" y="305" width="20" height="10" as="geometry" />
        </mxCell>
        <mxCell id="IOvyg2IV7ht-75ERE2fK-48" value="&lt;font style=&quot;font-size: 6px;&quot;&gt;descrizione&lt;/font&gt;" style="text;html=1;strokeColor=none;fillColor=none;align=center;verticalAlign=middle;whiteSpace=wrap;rounded=0;" vertex="1" parent="1">
          <mxGeometry x="592.5" y="325" width="30" height="10" as="geometry" />
        </mxCell>
        <mxCell id="IOvyg2IV7ht-75ERE2fK-49" value="(1,1)" style="text;html=1;strokeColor=none;fillColor=none;align=center;verticalAlign=middle;whiteSpace=wrap;rounded=0;" vertex="1" parent="1">
          <mxGeometry x="495" y="130" width="60" height="30" as="geometry" />
        </mxCell>
        <mxCell id="IOvyg2IV7ht-75ERE2fK-50" value="(N,N)" style="text;html=1;strokeColor=none;fillColor=none;align=center;verticalAlign=middle;whiteSpace=wrap;rounded=0;" vertex="1" parent="1">
          <mxGeometry x="497.5" y="250" width="60" height="30" as="geometry" />
        </mxCell>
      </root>
    </mxGraphModel>
  </diagram>
</mxfile>
